<svg width="178" height="62" viewBox="0 0 178 62" fill="none" xmlns="http://www.w3.org/2000/svg">
<path d="M31.0539 4.70901C31.6178 3.25613 33.7001 3.33631 34.1505 4.82824L38.9515 20.7304C39.3435 22.0288 38.0786 23.2142 36.8083 22.7389L27.2276 19.154C26.3726 18.8341 25.9439 17.8773 26.2741 17.0263L31.0539 4.70901Z" fill="#006990" stroke="#006990" stroke-width="1.09251"/>
<path d="M8.1091 5.43704C7.2707 5.89286 6.99757 6.96582 7.51599 7.76703L14.1555 18.0281C14.6441 18.7833 14.4327 19.7912 13.6818 20.2864L10.0867 22.6573C8.69548 23.5747 6.98206 22.0715 7.71068 20.5727L12.4008 10.9251L15.6178 4.76865C16.3674 3.33409 14.8046 1.79683 13.3826 2.56996L8.1091 5.43704Z" fill="#006990" stroke="#006990" stroke-width="1.09251"/>
<circle cx="23.489" cy="38.511" r="23.2541" fill="#006990" stroke="#006990" stroke-width="0.46978"/>
<path d="M26.4085 53.8717C25.5927 53.8717 24.828 53.6751 24.1142 53.2818C23.4004 52.903 22.825 52.2985 22.388 51.4682C21.951 50.6525 21.7325 49.6182 21.7325 48.3655V45.809L15.8766 45.809V42.75L31.1281 42.75V48.3655C31.1281 49.5454 30.9242 50.5505 30.5163 51.3808C30.1084 52.2111 29.5476 52.8302 28.8338 53.2381C28.1201 53.6605 27.3116 53.8717 26.4085 53.8717ZM24.2016 48.2344C24.2016 49.0793 24.391 49.7056 24.7697 50.1135C25.163 50.5214 25.7092 50.7253 26.4085 50.7253C27.8943 50.7253 28.6372 49.895 28.6372 48.2344V45.809H24.2016V48.2344Z" fill="white"/>
<path d="M15.2078 34.8049C14.7562 34.8049 14.3774 34.652 14.0715 34.3461C13.7656 34.0402 13.6127 33.6614 13.6127 33.2099C13.6127 32.7583 13.7656 32.3796 14.0715 32.0737C14.3774 31.7677 14.7562 31.6148 15.2078 31.6148C15.6448 31.6148 16.0162 31.7677 16.3221 32.0737C16.628 32.3796 16.781 32.7583 16.781 33.2099C16.781 33.6614 16.628 34.0402 16.3221 34.3461C16.0162 34.652 15.6448 34.8049 15.2078 34.8049Z" fill="white"/>
<path d="M32.6879 34.8049C32.2364 34.8049 31.8576 34.652 31.5517 34.3461C31.2458 34.0402 31.0929 33.6614 31.0929 33.2099C31.0929 32.7583 31.2458 32.3796 31.5517 32.0737C31.8576 31.7677 32.2364 31.6148 32.6879 31.6148C33.1249 31.6148 33.4964 31.7677 33.8023 32.0737C34.1082 32.3796 34.2612 32.7583 34.2612 33.2099C34.2612 33.6614 34.1082 34.0402 33.8023 34.3461C33.4964 34.652 33.1249 34.8049 32.6879 34.8049Z" fill="white"/>
<path d="M76.8748 27.8714C76.8748 28.6771 76.6848 29.4373 76.3047 30.1518C75.9246 30.8664 75.3165 31.4517 74.4803 31.9078C73.6441 32.3487 72.5723 32.5691 71.2649 32.5691H68.3915V39H65.7918V23.1508H71.2649C72.4811 23.1508 73.5073 23.3636 74.3435 23.7893C75.1949 24.1998 75.8258 24.7623 76.2363 25.4769C76.662 26.1914 76.8748 26.9896 76.8748 27.8714ZM71.2649 30.4483C72.2531 30.4483 72.9904 30.2278 73.4769 29.7869C73.9634 29.3309 74.2067 28.6923 74.2067 27.8714C74.2067 26.1382 73.2261 25.2716 71.2649 25.2716H68.3915V30.4483H71.2649ZM78.4877 32.6603C78.4877 31.3985 78.7461 30.281 79.263 29.308C79.7952 28.335 80.5097 27.5825 81.4067 27.0504C82.3189 26.5031 83.3223 26.2294 84.4169 26.2294C85.4051 26.2294 86.2641 26.4271 86.9938 26.8223C87.7388 27.2024 88.3317 27.6813 88.7726 28.259V26.4347H91.3951V39H88.7726V37.13C88.3317 37.7229 87.7312 38.217 86.971 38.6123C86.2108 39.0076 85.3443 39.2052 84.3713 39.2052C83.2919 39.2052 82.3037 38.9316 81.4067 38.3843C80.5097 37.8218 79.7952 37.0464 79.263 36.0582C78.7461 35.0548 78.4877 33.9222 78.4877 32.6603ZM88.7726 32.7059C88.7726 31.8394 88.5901 31.0868 88.2253 30.4483C87.8756 29.8097 87.4119 29.3232 86.8342 28.9888C86.2565 28.6543 85.6331 28.4871 84.9642 28.4871C84.2953 28.4871 83.6719 28.6543 83.0942 28.9888C82.5165 29.308 82.0452 29.7869 81.6803 30.4255C81.3307 31.0488 81.1558 31.7937 81.1558 32.6603C81.1558 33.5269 81.3307 34.287 81.6803 34.9408C82.0452 35.5945 82.5165 36.0962 83.0942 36.4459C83.6871 36.7804 84.3105 36.9476 84.9642 36.9476C85.6331 36.9476 86.2565 36.7804 86.8342 36.4459C87.4119 36.1114 87.8756 35.6249 88.2253 34.9864C88.5901 34.3327 88.7726 33.5725 88.7726 32.7059ZM111.685 26.4347L107.786 39H105.049L102.518 29.7185L99.9864 39H97.2498L93.3274 26.4347H95.9728L98.5953 36.5371L101.263 26.4347H103.977L106.531 36.4915L109.131 26.4347H111.685ZM118.189 39.2052C117.201 39.2052 116.311 39.0304 115.521 38.6807C114.745 38.3159 114.13 37.8294 113.674 37.2212C113.217 36.5979 112.974 35.9062 112.944 35.146H115.635C115.68 35.6781 115.931 36.1266 116.387 36.4915C116.859 36.8412 117.444 37.016 118.143 37.016C118.873 37.016 119.436 36.8792 119.831 36.6055C120.241 36.3167 120.447 35.9518 120.447 35.5109C120.447 35.0396 120.218 34.6899 119.762 34.4619C119.322 34.2338 118.615 33.983 117.642 33.7093C116.699 33.4509 115.931 33.2 115.338 32.9568C114.745 32.7135 114.228 32.3411 113.788 31.8394C113.362 31.3377 113.149 30.6763 113.149 29.8554C113.149 29.1864 113.347 28.5783 113.742 28.031C114.137 27.4685 114.7 27.0276 115.43 26.7083C116.174 26.3891 117.026 26.2294 117.984 26.2294C119.413 26.2294 120.561 26.5943 121.427 27.324C122.309 28.0386 122.78 29.0192 122.841 30.2658H120.241C120.196 29.7033 119.968 29.2548 119.557 28.9204C119.147 28.5859 118.592 28.4187 117.892 28.4187C117.208 28.4187 116.684 28.5479 116.319 28.8063C115.954 29.0648 115.772 29.4069 115.772 29.8326C115.772 30.167 115.893 30.4483 116.136 30.6763C116.38 30.9044 116.676 31.0868 117.026 31.2236C117.376 31.3453 117.892 31.5049 118.577 31.7025C119.489 31.9458 120.234 32.1966 120.811 32.4551C121.404 32.6983 121.914 33.0632 122.339 33.5497C122.765 34.0362 122.985 34.6823 123.001 35.4881C123.001 36.2026 122.803 36.8412 122.408 37.4037C122.012 37.9662 121.45 38.4071 120.72 38.7263C120.006 39.0456 119.162 39.2052 118.189 39.2052ZM131.26 39.2052C130.074 39.2052 129.002 38.9392 128.045 38.4071C127.087 37.8598 126.334 37.0996 125.787 36.1266C125.24 35.1384 124.966 33.9982 124.966 32.7059C124.966 31.4289 125.247 30.2962 125.81 29.308C126.372 28.3198 127.14 27.5597 128.113 27.0276C129.086 26.4955 130.173 26.2294 131.374 26.2294C132.575 26.2294 133.662 26.4955 134.635 27.0276C135.608 27.5597 136.376 28.3198 136.938 29.308C137.501 30.2962 137.782 31.4289 137.782 32.7059C137.782 33.983 137.493 35.1156 136.916 36.1038C136.338 37.092 135.547 37.8598 134.544 38.4071C133.556 38.9392 132.461 39.2052 131.26 39.2052ZM131.26 36.9476C131.929 36.9476 132.552 36.788 133.13 36.4687C133.723 36.1494 134.202 35.6705 134.567 35.032C134.932 34.3935 135.114 33.6181 135.114 32.7059C135.114 31.7937 134.939 31.026 134.589 30.4027C134.24 29.7641 133.776 29.2852 133.198 28.966C132.621 28.6467 131.997 28.4871 131.328 28.4871C130.66 28.4871 130.036 28.6467 129.458 28.966C128.896 29.2852 128.447 29.7641 128.113 30.4027C127.779 31.026 127.611 31.7937 127.611 32.7059C127.611 34.059 127.953 35.108 128.637 35.853C129.337 36.5827 130.211 36.9476 131.26 36.9476ZM155.563 26.2294C156.551 26.2294 157.433 26.4347 158.208 26.8451C158.999 27.2556 159.614 27.8638 160.055 28.6695C160.511 29.4753 160.739 30.4483 160.739 31.5885V39H158.163V31.9762C158.163 30.8512 157.881 29.9922 157.319 29.3993C156.756 28.7911 155.988 28.4871 155.015 28.4871C154.042 28.4871 153.267 28.7911 152.689 29.3993C152.127 29.9922 151.846 30.8512 151.846 31.9762V39H149.269V31.9762C149.269 30.8512 148.987 29.9922 148.425 29.3993C147.862 28.7911 147.095 28.4871 146.122 28.4871C145.149 28.4871 144.373 28.7911 143.796 29.3993C143.233 29.9922 142.952 30.8512 142.952 31.9762V39H140.352V26.4347H142.952V27.8714C143.378 27.3545 143.917 26.9516 144.571 26.6627C145.225 26.3739 145.924 26.2294 146.669 26.2294C147.672 26.2294 148.569 26.4423 149.36 26.868C150.15 27.2936 150.759 27.9094 151.184 28.7151C151.564 27.955 152.157 27.3545 152.963 26.9136C153.769 26.4575 154.635 26.2294 155.563 26.2294ZM175.564 32.4095C175.564 32.8808 175.533 33.3065 175.473 33.6865H165.872C165.948 34.6899 166.32 35.4957 166.989 36.1038C167.658 36.7119 168.479 37.016 169.452 37.016C170.851 37.016 171.839 36.4307 172.417 35.26H175.222C174.842 36.4155 174.15 37.3657 173.147 38.1106C172.158 38.8404 170.927 39.2052 169.452 39.2052C168.251 39.2052 167.172 38.9392 166.214 38.4071C165.271 37.8598 164.526 37.0996 163.979 36.1266C163.447 35.1384 163.181 33.9982 163.181 32.7059C163.181 31.4137 163.439 30.281 163.956 29.308C164.488 28.3198 165.226 27.5597 166.168 27.0276C167.126 26.4955 168.221 26.2294 169.452 26.2294C170.638 26.2294 171.695 26.4879 172.622 27.0048C173.549 27.5217 174.272 28.2514 174.788 29.194C175.305 30.1214 175.564 31.1932 175.564 32.4095ZM172.85 31.5885C172.835 30.6307 172.493 29.863 171.824 29.2852C171.155 28.7075 170.326 28.4187 169.338 28.4187C168.441 28.4187 167.673 28.7075 167.035 29.2852C166.396 29.8478 166.016 30.6155 165.895 31.5885H172.85Z" fill="#006990"/>
</svg>
